<svg width="163" height="142" viewBox="0 0 163 142" fill="none" xmlns="http://www.w3.org/2000/svg">
<path d="M28.152 126.088C24.344 126.088 20.808 125.499 17.544 124.32C14.3253 123.096 11.5147 121.373 9.112 119.152C6.75467 116.931 4.91867 114.301 3.604 111.264C2.28933 108.227 1.632 104.872 1.632 101.2C1.632 97.528 2.28933 94.1733 3.604 91.136C4.91867 88.0987 6.75467 85.4693 9.112 83.248C11.5147 81.0267 14.3253 79.3267 17.544 78.148C20.808 76.924 24.344 76.312 28.152 76.312C32.8213 76.312 36.9467 77.128 40.528 78.76C44.1547 80.392 47.1467 82.7493 49.504 85.832L39.372 94.876C37.9667 93.108 36.4027 91.748 34.68 90.796C33.0027 89.7987 31.0987 89.3 28.968 89.3C27.2907 89.3 25.772 89.572 24.412 90.116C23.052 90.66 21.8733 91.4533 20.876 92.496C19.924 93.5387 19.176 94.808 18.632 96.304C18.088 97.7547 17.816 99.3867 17.816 101.2C17.816 103.013 18.088 104.668 18.632 106.164C19.176 107.615 19.924 108.861 20.876 109.904C21.8733 110.947 23.052 111.74 24.412 112.284C25.772 112.828 27.2907 113.1 28.968 113.1C31.0987 113.1 33.0027 112.624 34.68 111.672C36.4027 110.675 37.9667 109.292 39.372 107.524L49.504 116.568C47.1467 119.605 44.1547 121.963 40.528 123.64C36.9467 125.272 32.8213 126.088 28.152 126.088ZM77.2942 126.088C72.7609 126.088 68.7716 125.227 65.3262 123.504C61.9262 121.736 59.2516 119.129 57.3022 115.684C55.3982 112.193 54.4462 107.864 54.4462 102.696C54.4462 97.12 55.5569 92.3827 57.7782 88.484C59.9996 84.54 63.0822 81.5253 67.0262 79.44C71.0156 77.3547 75.6169 76.312 80.8302 76.312C83.6409 76.312 86.3382 76.652 88.9222 77.332C91.5516 77.9667 93.7729 78.8733 95.5862 80.052L89.8062 91.272C88.4009 90.2747 86.9729 89.6173 85.5222 89.3C84.1169 88.9373 82.6662 88.756 81.1702 88.756C77.9516 88.756 75.3676 89.7307 73.4182 91.68C71.5142 93.584 70.5622 96.372 70.5622 100.044C70.5622 100.724 70.5622 101.404 70.5622 102.084C70.5622 102.719 70.5622 103.376 70.5622 104.056L66.8902 101.404C67.7969 99.8627 68.8622 98.5707 70.0862 97.528C71.3102 96.44 72.7609 95.624 74.4382 95.08C76.1156 94.4907 78.0649 94.196 80.2862 94.196C83.1876 94.196 85.8622 94.8307 88.3102 96.1C90.8036 97.324 92.7982 99.0693 94.2942 101.336C95.8356 103.603 96.6062 106.3 96.6062 109.428C96.6062 112.828 95.7449 115.775 94.0222 118.268C92.2996 120.761 89.9649 122.688 87.0182 124.048C84.1169 125.408 80.8756 126.088 77.2942 126.088ZM76.2062 115.004C77.1582 115.004 77.9969 114.823 78.7222 114.46C79.4929 114.052 80.0822 113.485 80.4902 112.76C80.8982 112.035 81.1022 111.173 81.1022 110.176C81.1022 108.68 80.6489 107.501 79.7422 106.64C78.8356 105.733 77.6569 105.28 76.2062 105.28C75.2542 105.28 74.4156 105.484 73.6902 105.892C72.9649 106.3 72.3756 106.867 71.9222 107.592C71.5142 108.317 71.3102 109.179 71.3102 110.176C71.3102 111.173 71.5142 112.035 71.9222 112.76C72.3756 113.485 72.9649 114.052 73.6902 114.46C74.4156 114.823 75.2542 115.004 76.2062 115.004ZM102.395 116.84V106.64L122.591 77.4H139.047L119.599 106.64L112.119 104.396H148.975V116.84H102.395ZM127.079 125V116.84L127.555 104.396V97.12H142.651V125H127.079Z" fill="white"/>
<rect width="90" height="54" fill="url(#paint0_linear_2527_35)"/>
<rect x="18" width="18" height="18" fill="url(#paint1_linear_2527_35)"/>
<rect x="36" y="18" width="18" height="18" fill="url(#paint2_linear_2527_35)"/>
<rect x="72" y="18" width="18" height="18" fill="url(#paint3_linear_2527_35)"/>
<rect x="54" y="36" width="18" height="18" fill="url(#paint4_linear_2527_35)"/>
<rect x="18" y="36" width="18" height="18" fill="url(#paint5_linear_2527_35)"/>
<rect y="18" width="18" height="18" fill="url(#paint6_linear_2527_35)"/>
<rect x="54" width="18" height="18" fill="url(#paint7_linear_2527_35)"/>
<defs>
<linearGradient id="paint0_linear_2527_35" x1="33.4884" y1="2.45454" x2="64.5302" y2="59.7957" gradientUnits="userSpaceOnUse">
<stop offset="0.360598" stop-color="#DA6C30"/>
<stop offset="1" stop-color="#F6D988"/>
</linearGradient>
<linearGradient id="paint1_linear_2527_35" x1="18" y1="0" x2="36" y2="18" gradientUnits="userSpaceOnUse">
<stop stop-color="#222324"/>
<stop offset="1" stop-color="#484847"/>
</linearGradient>
<linearGradient id="paint2_linear_2527_35" x1="36" y1="18" x2="54" y2="36" gradientUnits="userSpaceOnUse">
<stop stop-color="#222324"/>
<stop offset="1" stop-color="#484847"/>
</linearGradient>
<linearGradient id="paint3_linear_2527_35" x1="72" y1="18" x2="90" y2="36" gradientUnits="userSpaceOnUse">
<stop stop-color="#222324"/>
<stop offset="1" stop-color="#484847"/>
</linearGradient>
<linearGradient id="paint4_linear_2527_35" x1="54" y1="36" x2="72" y2="54" gradientUnits="userSpaceOnUse">
<stop stop-color="#222324"/>
<stop offset="1" stop-color="#484847"/>
</linearGradient>
<linearGradient id="paint5_linear_2527_35" x1="18" y1="36" x2="36" y2="54" gradientUnits="userSpaceOnUse">
<stop stop-color="#222324"/>
<stop offset="1" stop-color="#484847"/>
</linearGradient>
<linearGradient id="paint6_linear_2527_35" x1="0" y1="18" x2="18" y2="36" gradientUnits="userSpaceOnUse">
<stop stop-color="#222324"/>
<stop offset="1" stop-color="#484847"/>
</linearGradient>
<linearGradient id="paint7_linear_2527_35" x1="54" y1="0" x2="72" y2="18" gradientUnits="userSpaceOnUse">
<stop stop-color="#222324"/>
<stop offset="1" stop-color="#484847"/>
</linearGradient>
</defs>
</svg>
