<svg width="317" height="51" viewBox="0 0 317 51" fill="none" xmlns="http://www.w3.org/2000/svg">
<path d="M23.3913 10.7439C21.8499 10.7439 20.4673 11.0839 19.2433 11.7639C18.0193 12.3986 16.9766 13.3506 16.1153 14.6199C15.2539 15.8439 14.5966 17.3399 14.1433 19.1079C13.6899 20.8759 13.4633 22.8933 13.4633 25.1599C13.4633 28.1973 13.8486 30.7586 14.6193 32.8439C15.3899 34.9293 16.5686 36.5159 18.1553 37.6039C19.7419 38.6466 21.7366 39.1679 24.1393 39.1679C26.2699 39.1679 28.3326 38.8733 30.3273 38.2839C32.3673 37.6946 34.4073 36.9693 36.4473 36.1079V47.1919C34.3166 48.1439 32.1179 48.8239 29.8513 49.2319C27.6299 49.6853 25.2499 49.9119 22.7113 49.9119C17.4526 49.9119 13.1459 48.8693 9.79125 46.7839C6.43658 44.6986 3.96592 41.7973 2.37925 38.0799C0.792584 34.3173 -0.000749812 29.9879 -0.000749812 25.0919C-0.000749812 21.4199 0.497917 18.0653 1.49525 15.0279C2.53792 11.9453 4.05658 9.29327 6.05125 7.07193C8.04592 4.80527 10.4939 3.05993 13.3953 1.83593C16.3419 0.611931 19.7193 -6.8903e-05 23.5273 -6.8903e-05C25.8846 -6.8903e-05 28.3553 0.271932 30.9393 0.815933C33.5233 1.35993 36.0619 2.22126 38.5553 3.39993L34.5433 13.7359C32.7753 12.8746 30.9846 12.1719 29.1713 11.6279C27.3579 11.0386 25.4313 10.7439 23.3913 10.7439ZM48.1034 49.2319V0.815933H61.7034V49.2319H48.1034ZM77.3434 49.2319V0.815933H90.9434V49.2319H77.3434ZM55.5154 30.1919V18.9039H82.6474V30.1919H55.5154ZM102.371 49.2319V0.815933H115.971V49.2319H102.371ZM113.387 49.2319V37.9439H139.363V49.2319H113.387ZM113.387 30.0559V19.0399H136.847V30.0559H113.387ZM113.387 12.1039V0.815933H138.955V12.1039H113.387ZM163.645 50.0479C159.52 50.0479 155.916 49.4586 152.833 48.2799C149.796 47.0559 146.985 45.1293 144.401 42.4999L152.901 33.9999C154.669 35.6773 156.528 36.9693 158.477 37.8759C160.426 38.7373 162.512 39.1679 164.733 39.1679C166.592 39.1679 167.997 38.8959 168.949 38.3519C169.901 37.7626 170.377 36.9693 170.377 35.9719C170.377 34.9746 169.969 34.1586 169.153 33.5239C168.337 32.8439 167.249 32.2546 165.889 31.7559C164.574 31.2119 163.101 30.6679 161.469 30.1239C159.882 29.5799 158.296 28.9226 156.709 28.1519C155.122 27.3813 153.649 26.4519 152.289 25.3639C150.974 24.2306 149.909 22.8479 149.093 21.2159C148.277 19.5386 147.869 17.4986 147.869 15.0959C147.869 11.9679 148.617 9.2706 150.113 7.00393C151.609 4.73727 153.717 3.0146 156.437 1.83593C159.157 0.611931 162.353 -6.8903e-05 166.025 -6.8903e-05C169.652 -6.8903e-05 173.006 0.589265 176.089 1.76793C179.217 2.90126 181.801 4.53326 183.841 6.66393L175.273 15.1639C173.777 13.7133 172.281 12.6479 170.785 11.9679C169.289 11.2426 167.657 10.8799 165.889 10.8799C164.484 10.8799 163.35 11.1066 162.489 11.5599C161.673 12.0133 161.265 12.6933 161.265 13.5999C161.265 14.5519 161.673 15.3453 162.489 15.9799C163.305 16.5693 164.37 17.1133 165.685 17.6119C167.045 18.1106 168.518 18.6319 170.105 19.1759C171.737 19.7199 173.346 20.3773 174.933 21.1479C176.52 21.8733 177.97 22.8253 179.285 24.0039C180.645 25.1373 181.733 26.5653 182.549 28.2879C183.365 30.0106 183.773 32.0959 183.773 34.5439C183.773 39.4853 182.005 43.3159 178.469 46.0359C174.978 48.7106 170.037 50.0479 163.645 50.0479ZM207.287 50.0479C203.162 50.0479 199.558 49.4586 196.475 48.2799C193.438 47.0559 190.627 45.1293 188.043 42.4999L196.543 33.9999C198.311 35.6773 200.17 36.9693 202.119 37.8759C204.068 38.7373 206.154 39.1679 208.375 39.1679C210.234 39.1679 211.639 38.8959 212.591 38.3519C213.543 37.7626 214.019 36.9693 214.019 35.9719C214.019 34.9746 213.611 34.1586 212.795 33.5239C211.979 32.8439 210.891 32.2546 209.531 31.7559C208.216 31.2119 206.743 30.6679 205.111 30.1239C203.524 29.5799 201.938 28.9226 200.351 28.1519C198.764 27.3813 197.291 26.4519 195.931 25.3639C194.616 24.2306 193.551 22.8479 192.735 21.2159C191.919 19.5386 191.511 17.4986 191.511 15.0959C191.511 11.9679 192.259 9.2706 193.755 7.00393C195.251 4.73727 197.359 3.0146 200.079 1.83593C202.799 0.611931 205.995 -6.8903e-05 209.667 -6.8903e-05C213.294 -6.8903e-05 216.648 0.589265 219.731 1.76793C222.859 2.90126 225.443 4.53326 227.483 6.66393L218.915 15.1639C217.419 13.7133 215.923 12.6479 214.427 11.9679C212.931 11.2426 211.299 10.8799 209.531 10.8799C208.126 10.8799 206.992 11.1066 206.131 11.5599C205.315 12.0133 204.907 12.6933 204.907 13.5999C204.907 14.5519 205.315 15.3453 206.131 15.9799C206.947 16.5693 208.012 17.1133 209.327 17.6119C210.687 18.1106 212.16 18.6319 213.747 19.1759C215.379 19.7199 216.988 20.3773 218.575 21.1479C220.162 21.8733 221.612 22.8253 222.927 24.0039C224.287 25.1373 225.375 26.5653 226.191 28.2879C227.007 30.0106 227.415 32.0959 227.415 34.5439C227.415 39.4853 225.647 43.3159 222.111 46.0359C218.62 48.7106 213.679 50.0479 207.287 50.0479Z" fill="white"/>
<path d="M252.329 50.0479C248.793 50.0479 245.597 49.2999 242.741 47.8039C239.93 46.3079 237.686 44.2906 236.009 41.7519C234.377 39.1679 233.561 36.2666 233.561 33.0479C233.561 29.2399 234.875 25.4093 237.505 21.5559L251.581 0.815933H266.677L250.425 23.2559L245.325 22.1679C246.095 21.0346 246.821 20.0599 247.501 19.2439C248.226 18.4279 249.087 17.7933 250.085 17.3399C251.127 16.8866 252.487 16.6599 254.165 16.6599C257.338 16.6599 260.194 17.4079 262.733 18.9039C265.271 20.3546 267.289 22.3266 268.785 24.8199C270.326 27.2679 271.097 30.0106 271.097 33.0479C271.097 36.2666 270.258 39.1679 268.581 41.7519C266.949 44.2906 264.727 46.3079 261.917 47.8039C259.106 49.2999 255.91 50.0479 252.329 50.0479ZM252.329 38.7599C253.462 38.7599 254.459 38.5106 255.321 38.0119C256.227 37.4679 256.93 36.7426 257.429 35.8359C257.927 34.8839 258.177 33.8186 258.177 32.6399C258.177 31.4613 257.927 30.4186 257.429 29.5119C256.93 28.5599 256.227 27.8346 255.321 27.3359C254.459 26.7919 253.462 26.5199 252.329 26.5199C251.195 26.5199 250.175 26.7919 249.269 27.3359C248.407 27.8346 247.727 28.5599 247.229 29.5119C246.73 30.4186 246.481 31.4613 246.481 32.6399C246.481 33.8186 246.73 34.8839 247.229 35.8359C247.727 36.7426 248.407 37.4679 249.269 38.0119C250.175 38.5106 251.195 38.7599 252.329 38.7599ZM276.536 32.9119L291.088 0.815933H305.504L290.612 32.9119H276.536ZM276.536 40.1879V32.9119L280.208 29.0359H316.52V40.1879H276.536ZM299.248 49.2319V20.9439H312.508V49.2319H299.248Z" fill="url(#paint0_linear_2532_4)"/>
<defs>
<linearGradient id="paint0_linear_2532_4" x1="-3.46875" y1="24.2319" x2="328.531" y2="24.2319" gradientUnits="userSpaceOnUse">
<stop stop-color="#F8CB50"/>
<stop offset="1" stop-color="#EF8316"/>
</linearGradient>
</defs>
</svg>
